<svg id="Layer_1" data-name="Layer 1" xmlns="http://www.w3.org/2000/svg" viewBox="0 0 204.24 304.63"><defs><style>.cls-1{fill:#fff56d;}.cls-2{fill:#ffe4b8;}.cls-3{fill:#685a56;}.cls-4{fill:#faa61a;}.cls-5{fill:#3f231d;}</style></defs><ellipse class="cls-1" cx="102.12" cy="89.05" rx="102.12" ry="89.05"/><path class="cls-2" d="M133,177.8a3.54,3.54,0,0,1-2.59-.68,3.31,3.31,0,0,1-1.26-2.26,8.62,8.62,0,0,1,.49-3.2,14.36,14.36,0,0,0,.58-6.72c-.78-4.31-3-7.15-5.26-10.17-.83-1.07-1.68-2.18-2.47-3.38-1.64-2.46-2.17-5.06-1.42-7a3.88,3.88,0,0,1,2.86-2.38c3.82-.9,7,2.83,7.71,3.66.36,1,.69,2,1,3a22.6,22.6,0,0,1,.82,11.1c-.1.84-.19,1.71-.28,2.66-.38,4.39.18,8,1.71,10.94a15.82,15.82,0,0,0,1,1.68A3.35,3.35,0,0,1,133,177.8Z" transform="translate(-88.66 -28.32)"/><path class="cls-2" d="M168,186.34c1.53.27,3.06.57,4.58.92l2.94.71c4.85,1.18,9.86,2.41,15.31,2.41a52.13,52.13,0,0,0,11.63-1.53c-1.49,4.57-5.6,14.75-14.29,21.21a30.69,30.69,0,0,1-11.9,5.57,20.74,20.74,0,0,1-3.84.46,33.48,33.48,0,0,1,1.22-15.6,1.49,1.49,0,0,0-2.78-1.09,36.83,36.83,0,0,0-.53,21.33c2.25,8.49,7.76,15,16.38,19.24a45.1,45.1,0,0,1-11.95,1.71,31.4,31.4,0,0,1-7.58-5.07c-6.36-5.78-9.72-13.72-9.72-23A42.1,42.1,0,0,1,168,186.34Z" transform="translate(-88.66 -28.32)"/><path class="cls-2" d="M191.44,241.5a42.3,42.3,0,0,0,4.37-2,34.84,34.84,0,0,0,6.77-4.64,13.45,13.45,0,0,0,8.64,4.28,35.93,35.93,0,0,1-20.44,6,39.1,39.1,0,0,1-9.14-1.07,46.85,46.85,0,0,0,9.56-2.52Z" transform="translate(-88.66 -28.32)"/><path class="cls-2" d="M259.11,151.39c-.8,1.2-1.65,2.31-2.47,3.38-2.31,3-4.49,5.86-5.26,10.17a14.23,14.23,0,0,0,.58,6.72,8.59,8.59,0,0,1,.48,3.2,3.27,3.27,0,0,1-1.26,2.26,3.53,3.53,0,0,1-2.59.68,3.35,3.35,0,0,1-2.89-2.71,14.3,14.3,0,0,0,1-1.68c1.53-3,2.09-6.55,1.71-10.94-.08-.95-.18-1.82-.27-2.66a22.48,22.48,0,0,1,.82-11.1c.3-1,.64-2,1-3,.65-.83,3.86-4.56,7.71-3.65a3.86,3.86,0,0,1,2.85,2.38C261.27,146.33,260.74,148.93,259.11,151.39Z" transform="translate(-88.66 -28.32)"/><path class="cls-2" d="M249.65,110.52A25.2,25.2,0,0,0,227,100.79a78.67,78.67,0,0,0-13,2.9c-7,2-14.93,4.16-23.27,4.16s-16.28-2.21-23.27-4.16a78.55,78.55,0,0,0-13-2.9,25.18,25.18,0,0,0-22.62,9.73,18.82,18.82,0,0,0-4,14,124.11,124.11,0,0,0,4.88,15.72c1,2.65,1.87,5.17,2.63,7.59a25.57,25.57,0,0,1,.94,12.33c-.09.82-.19,1.66-.27,2.58a16.91,16.91,0,0,0,1.39,9.32,14,14,0,0,0,6.13,5.95c4,2.11,9,3,13.41,3.69,1.44.23,2.87.43,4.39.64,2,.29,4.1.58,6.19.93h0c1.84.31,3.7.66,5.55,1.09,1,.23,2,.48,3,.72,4.89,1.19,9.5,2.32,14.6,2.32s9.71-1.13,14.6-2.32c1-.24,2-.49,3-.72,1.86-.43,3.71-.78,5.55-1.09h0c2.09-.35,4.15-.64,6.18-.93,1.52-.21,3-.41,4.4-.64,4.37-.68,9.37-1.58,13.4-3.69a14,14,0,0,0,6.14-5.95,16.91,16.91,0,0,0,1.39-9.32c-.08-.92-.18-1.76-.27-2.58a25.57,25.57,0,0,1,.94-12.33c.75-2.42,1.66-4.93,2.62-7.59a122.51,122.51,0,0,0,4.89-15.72A18.9,18.9,0,0,0,249.65,110.52Zm-74.11,39.15c-3.31,4-9.74,6.51-16.77,6.51s-13.45-2.49-16.76-6.51a1.48,1.48,0,0,1,2.29-1.89c2.72,3.29,8.4,5.42,14.47,5.42s11.75-2.13,14.47-5.42a1.49,1.49,0,0,1,2.3,1.89Zm27.7,24.27c-2.12,3.86-6.9,6.26-12.46,6.26s-10.34-2.4-12.47-6.26a1.49,1.49,0,1,1,2.61-1.44c1.6,2.91,5.38,4.72,9.86,4.72s8.25-1.81,9.85-4.72a1.49,1.49,0,1,1,2.61,1.44Zm36.31-24.27c-3.31,4-9.74,6.51-16.77,6.51s-13.45-2.49-16.76-6.51a1.49,1.49,0,0,1,2.3-1.89c2.71,3.29,8.39,5.42,14.46,5.42s11.75-2.13,14.47-5.42a1.49,1.49,0,0,1,2.3,1.89Z" transform="translate(-88.66 -28.32)"/><path class="cls-3" d="M168.37,63.3c0-8.79,10-15.94,22.41-15.94s22.41,7.15,22.41,15.94A11.71,11.71,0,0,1,212,68.47c-2.8-.62-5.22-1-7.1-1.24a117.43,117.43,0,0,0-14.11-.88h0a117.34,117.34,0,0,0-14.08.88c-1.87.23-4.3.62-7.09,1.24A11.71,11.71,0,0,1,168.37,63.3Z" transform="translate(-88.66 -28.32)"/><path class="cls-3" d="M148.35,80a74.48,74.48,0,0,1,28.7-9.86,114.09,114.09,0,0,1,13.74-.85h0a113.89,113.89,0,0,1,13.71.85A74.37,74.37,0,0,1,233.2,80c13.94,8.49,21.18,19.66,21.56,33.26a23.79,23.79,0,0,0-2.73-4.58,28.16,28.16,0,0,0-25.28-10.89,79.72,79.72,0,0,0-13.5,3c-6.81,1.9-14.53,4.05-22.47,4.05s-15.66-2.15-22.47-4.05a79.81,79.81,0,0,0-13.51-3,28.14,28.14,0,0,0-25.27,10.89,23.79,23.79,0,0,0-2.73,4.58C127.18,99.7,134.41,88.53,148.35,80Z" transform="translate(-88.66 -28.32)"/><path class="cls-4" d="M224.06,232.28a28.11,28.11,0,0,0,2.8,1.39,26.86,26.86,0,0,1,4.8,2.63,9.79,9.79,0,0,1,4.26,8.91c-.4,5.51-4.28,8.81-10.39,8.81H156c-6.1,0-10-3.3-10.38-8.81a9.79,9.79,0,0,1,4.26-8.91,26.86,26.86,0,0,1,4.8-2.63,28.11,28.11,0,0,0,2.8-1.39,9.11,9.11,0,0,0,1.47-1.12,31.68,31.68,0,0,0,6.16,7.65,34.43,34.43,0,0,0,8.62,5.7l.08,0a40.42,40.42,0,0,0,16.95,3.6c9.91,0,19-3.31,25.64-9.34a31.72,31.72,0,0,0,6.17-7.65A8.68,8.68,0,0,0,224.06,232.28Z" transform="translate(-88.66 -28.32)"/><path class="cls-4" d="M224.14,213.66c0,8.83-3.07,16.46-8.9,22.17a10.18,10.18,0,0,1-2.8.39,10.41,10.41,0,0,1-7.72-3.44,26.47,26.47,0,0,0,5.32-8.34,37.23,37.23,0,0,0,.7-25,1.49,1.49,0,1,0-2.78,1.07,34.61,34.61,0,0,1-.7,22.87c-2.16,5.53-6.61,10.2-12.85,13.52a38.83,38.83,0,0,1-3.63,1.69c-9.43-3.86-15.36-10.11-17.61-18.6-.08-.3-.15-.6-.22-.9,3.18-.15,9.65-1.19,17-6.61,10.78-8,14.9-20.86,15.87-24.4l.31-.08,2.95-.71c1.52-.35,3.05-.65,4.57-.92A42.11,42.11,0,0,1,224.14,213.66Z" transform="translate(-88.66 -28.32)"/><path class="cls-5" d="M104.83,313.57h.37c5.2,0,7.42-2.23,7.42-4.23V288.48a3.58,3.58,0,0,0-.89-2.38,32.38,32.38,0,0,0,3.86.3,34.15,34.15,0,0,0,4.16-.3,4,4,0,0,0-.74,2.38v20.86c0,4.38-2.9,9.8-13.81,9.8h-.37c-10.92,0-13.81-5.42-13.81-9.8V291.52a5.15,5.15,0,0,0-1.86-4.31l.22-.89a20.88,20.88,0,0,0,3.87.3,12.87,12.87,0,0,0,4.15-.52v23.24C97.4,311.34,99.63,313.57,104.83,313.57Z" transform="translate(-88.66 -28.32)"/><path class="cls-5" d="M119.23,331.76a23.47,23.47,0,0,0-6.61,1.19v-7.34c0-2.45-1.41-2.3-1.41-2.3v-1.19h5.2a2.43,2.43,0,0,1,2.6,2.52v5.49A3.75,3.75,0,0,0,119.23,331.76Z" transform="translate(-88.66 -28.32)"/><path class="cls-5" d="M159.7,313.57h.37c5.2,0,6.68-2.23,6.68-4.23V288.48a3.58,3.58,0,0,0-.89-2.38,32.38,32.38,0,0,0,3.86.3,34.41,34.41,0,0,0,4.16-.3,3.9,3.9,0,0,0-.74,2.38v20.86c0,4.38-2.16,9.8-13.07,9.8h-.37a26,26,0,0,1-5.27-.52,9.44,9.44,0,0,1-5.28,3.64v.3a19.49,19.49,0,0,0,8.25,1.7c2.89,0,5-1,5-2.45H166a5.91,5.91,0,0,0,3.27-.66c0,3-3.05,8.09-11.88,8.09s-12.18-5-13.89-5.87v-.74c2.08-.67,5.87-3.49,6.16-6.16a8.59,8.59,0,0,1-3-7.13V296.27c0-2.6-1.11-5.27-7.28-5.27a15.35,15.35,0,0,0-7.94,2.38v.15a7,7,0,0,1,5.27,4.15,5.28,5.28,0,0,0-3.86,4.46v10.24c.07,1.27,1.41,1.27,1.86,1.27a8.93,8.93,0,0,0,2.74-.82,25.57,25.57,0,0,0-.89,5.72h-2.89c-4.76,0-7.21-2.45-7.21-6.17V302.14c0-1.93,1.79-3.86,3.79-4.6-.82-1.86-4.45-2.9-6.24-2.9v-3c1.19-.22,7.73-6.16,15.67-6.16,12.25,0,13.36,7.64,13.36,10.54v13.29C153,311.34,154.5,313.57,159.7,313.57Z" transform="translate(-88.66 -28.32)"/><path class="cls-5" d="M186,305.46c0,3.24,1.89,5.06,4.79,5.06,3.44,0,6.82-2.9,8.44-5.94V288.25a3.25,3.25,0,0,0-.81-2.16,29.19,29.19,0,0,0,3.51.27,31.13,31.13,0,0,0,3.78-.27,3.52,3.52,0,0,0-.68,2.16v12.62a8.18,8.18,0,0,0,1.56,4.05c-.61.4-1.56,1.48-1.56,2v4.05a5.49,5.49,0,0,0,1.69,4.25l-.2.94a11.94,11.94,0,0,0-3.71-.4c-2.23,0-3.58-.88-3.58-2.36V312c-2.7,2-5.94,3.71-9.32,3.71-6.95,0-9.72-4.59-9.72-10.26V291a4.66,4.66,0,0,0-1.68-3.91l.2-.81a19.68,19.68,0,0,0,3.51.27,11.94,11.94,0,0,0,3.78-.47Z" transform="translate(-88.66 -28.32)"/><path class="cls-5" d="M208.47,277.18c0,3.44-2.84,5.13-6.28,5.13s-6.34-1.76-6.34-5.13,2.83-5.13,6.34-5.13S208.47,273.87,208.47,277.18Zm-7.76,0a1.48,1.48,0,0,0,1.48,1.69,1.51,1.51,0,0,0,1.49-1.69,1.47,1.47,0,0,0-1.49-1.69C201.52,275.49,200.71,275.83,200.71,277.18Zm14.88,11.94a8.91,8.91,0,0,0-6.07,1.89h-.68v-4.65a22.91,22.91,0,0,1,6.75-1.29c11.55,0,11.28,7.63,11.28,10.06v18.7a3.63,3.63,0,0,0,.67,2.16,31,31,0,0,0-3.78-.27,29.19,29.19,0,0,0-3.51.27,3.29,3.29,0,0,0,.81-2.16v-18.7C221.06,292.43,220.93,289.12,215.59,289.12Z" transform="translate(-88.66 -28.32)"/><path class="cls-5" d="M272.09,286.56l-10,30.31a9.21,9.21,0,0,0-5.4-2.3l-5.33-15.73-5.67,17.89a10.76,10.76,0,0,0-5.54-2.36L232.4,291a8.71,8.71,0,0,0-3.24-4.11v-.81a14.27,14.27,0,0,0,3.31.4,23.24,23.24,0,0,0,4.12-.67l7,21.39,5-15-1.35-3.78a6,6,0,0,0-1.48-2.5,16.22,16.22,0,0,0,3.84.54h3l6.68,20.72,6.35-18.63a3.23,3.23,0,0,0-.47-2.29,29.44,29.44,0,0,0,3.51.27Z" transform="translate(-88.66 -28.32)"/><path class="cls-5" d="M280.6,289.12a8.92,8.92,0,0,0-6.08,1.89h-.67v-4.65a22.91,22.91,0,0,1,6.75-1.29c11.54,0,11.27,7.63,11.27,10.06v18.7a3.63,3.63,0,0,0,.67,2.16,31,31,0,0,0-3.78-.27,29.19,29.19,0,0,0-3.51.27,3.29,3.29,0,0,0,.81-2.16v-18.7C286.06,292.43,285.93,289.12,280.6,289.12Z" transform="translate(-88.66 -28.32)"/><path class="cls-5" d="M185.87,326.9a2.62,2.62,0,0,1,2,2.71c0,1.78-1.5,3-3.67,3h-3.09a2.47,2.47,0,0,0-1.2.32v-.22a2.17,2.17,0,0,0,.33-1.28v-8.14c0-.75-.27-1-.33-1.07V322a9.06,9.06,0,0,0,1.2.08h2.45c2.12,0,3.42,1,3.42,2.75a2.17,2.17,0,0,1-1.12,2Zm-2.3-3.26H182v2.77h1.58c1,0,1.68-.46,1.68-1.54C185.25,324,184.56,323.64,183.57,323.64Zm2.55,6c0-1.09-.61-1.68-1.85-1.7H182v2.75c0,.31.18.45.52.45h1.7C185.23,331.11,186.12,330.72,186.12,329.61Z" transform="translate(-88.66 -28.32)"/><path class="cls-5" d="M201.91,327.36c0,3.16-2.1,5.49-5.18,5.49a5.48,5.48,0,1,1,5.18-5.49Zm-1.74,0c0-2.59-1.48-3.95-3.44-3.95s-3.44,1.36-3.44,3.95,1.49,4,3.44,4S200.17,330,200.17,327.36Z" transform="translate(-88.66 -28.32)"/><path class="cls-5" d="M216,327.36a5.14,5.14,0,0,1-5.19,5.49c-3.08,0-5.18-2.33-5.18-5.49a5.19,5.19,0,1,1,10.37,0Zm-1.75,0c0-2.59-1.47-3.95-3.44-3.95s-3.44,1.36-3.44,3.95,1.5,4,3.44,4S214.2,330,214.2,327.36Z" transform="translate(-88.66 -28.32)"/><path class="cls-5" d="M222,324.79v6.72a1.37,1.37,0,0,0,.3,1v.2a5.09,5.09,0,0,0-1.17-.12,4,4,0,0,0-1.2.12v-.2c.06,0,.33-.29.33-1v-8.3a1.43,1.43,0,0,0-.31-1V322a2.26,2.26,0,0,0,.83.14h1.16l4.59,6.4v-5.31c0-.75-.26-1-.32-1V322a3.92,3.92,0,0,0,1.2.12,5.2,5.2,0,0,0,1.17-.12v.2s-.3.28-.3,1v9.42h-.67Z" transform="translate(-88.66 -28.32)"/><path class="cls-5" d="M239.68,329.87v-6.68c0-.75-.27-1-.33-1V322a4,4,0,0,0,1.2.12,5.09,5.09,0,0,0,1.17-.12v.2s-.3.28-.3,1v6.68c0,1.22-.79,2.88-3.77,2.88h-.46c-3,0-3.77-1.66-3.77-2.88v-6.68c0-.75-.26-1-.32-1V322a3.88,3.88,0,0,0,1.19.12,5.25,5.25,0,0,0,1.18-.12v.2a1.31,1.31,0,0,0-.31,1v6.68c0,.79.61,1.36,2,1.36h.46C239.07,331.23,239.68,330.66,239.68,329.87Z" transform="translate(-88.66 -28.32)"/><path class="cls-5" d="M251.56,329.14l3.28-7H256a2.22,2.22,0,0,0,.83-.14v.2a1.46,1.46,0,0,0-.3,1v8.3c0,.75.26,1,.32,1v.2a3.88,3.88,0,0,0-1.19-.12,5.25,5.25,0,0,0-1.18.12v-.2a1.37,1.37,0,0,0,.3-1V325.8l-3.24,6.81-3.21-6.77v5.67a1.37,1.37,0,0,0,.3,1v.2a5.25,5.25,0,0,0-1.18-.12,3.88,3.88,0,0,0-1.19.12v-.2c.06,0,.32-.29.32-1v-8.3a1.46,1.46,0,0,0-.3-1V322a2.22,2.22,0,0,0,.83.14h1.15Z" transform="translate(-88.66 -28.32)"/><path class="cls-5" d="M261.43,322.16V322a3.85,3.85,0,0,0,1.17.12h2.47c2.13,0,3.4,1,3.4,2.87s-1.23,2.92-3.4,2.92h-1.6v3.64c0,.75.26,1,.31,1v.2a5.25,5.25,0,0,0-1.18-.12,3.88,3.88,0,0,0-1.19.12v-.2c.06,0,.32-.29.32-1v-8.72A.91.91,0,0,0,261.43,322.16Zm5.3,2.79c0-1-.69-1.37-1.66-1.37h-1.6v2.77h1.6C266,326.35,266.73,326.09,266.73,325Z" transform="translate(-88.66 -28.32)"/><path class="cls-5" d="M275.58,322l3.91,10.06a1.06,1.06,0,0,0,.55.53l0,.16a3.71,3.71,0,0,0-1.28-.2,4.12,4.12,0,0,0-1.3.2v-.14a.53.53,0,0,0,.21-.57l-.87-2.15h-3.93l-.87,2.17a.53.53,0,0,0,.2.57v.14a4.06,4.06,0,0,0-1.3-.2,3.64,3.64,0,0,0-1.27.2l0-.16a1.06,1.06,0,0,0,.54-.53l3.73-9.6-.06-.16c-.06-.12-.14-.18-.22-.18l-.06-.14Zm.71,6.4-1.4-3.63-1.44,3.63Z" transform="translate(-88.66 -28.32)"/><path class="cls-5" d="M285.12,331.51a1.37,1.37,0,0,0,.3,1v.2a5.09,5.09,0,0,0-1.17-.12,4,4,0,0,0-1.2.12v-.2c.06,0,.33-.29.33-1v-8.72a.92.92,0,0,0-.31-.63V322a4,4,0,0,0,1.18.12h2.47c2.12,0,3.4,1,3.4,2.87a2.74,2.74,0,0,1-2.07,2.74l2.78,4.37a1.25,1.25,0,0,0,1,.34v.25h-1.52c-.71,0-1-.1-1.31-.47l-3.69-5.83h1.58c.83,0,1.46-.34,1.46-1.4s-.69-1.37-1.66-1.37h-1.6Z" transform="translate(-88.66 -28.32)"/><path class="cls-5" d="M263.3,143.34a6.85,6.85,0,0,0-4.95-4.19,8.84,8.84,0,0,0-6.41,1,119,119,0,0,0,4.54-14.72s0,0,0,0a1.87,1.87,0,0,0,.05-.27,53.27,53.27,0,0,0,1.09-7.25,39.78,39.78,0,0,0-3.39-19.81c-3.68-8-10.23-14.93-19.49-20.57a74.23,74.23,0,0,0-19.83-8.3,14.6,14.6,0,0,0,1.25-5.89c0-10.43-11.39-18.92-25.39-18.92s-25.39,8.49-25.39,18.92a14.56,14.56,0,0,0,1.25,5.89,74.41,74.41,0,0,0-19.84,8.3c-9.25,5.64-15.81,12.56-19.48,20.57a39.78,39.78,0,0,0-3.39,19.81,53.63,53.63,0,0,0,1.08,7.26,2.41,2.41,0,0,1,0,.26s0,0,0,0a118.68,118.68,0,0,0,4.54,14.73,8.86,8.86,0,0,0-6.41-1,6.83,6.83,0,0,0-4.95,4.19c-1.12,2.84-.5,6.38,1.71,9.7.85,1.28,1.73,2.43,2.58,3.54,2.17,2.84,4,5.29,4.7,8.89a11.52,11.52,0,0,1-.52,5.4,11,11,0,0,0-.57,4.37,6.23,6.23,0,0,0,2.41,4.26,6.55,6.55,0,0,0,3.92,1.31,6.65,6.65,0,0,0,.89-.06,6.43,6.43,0,0,0,4.67-3.1,18.41,18.41,0,0,0,4.2,3c4.44,2.32,9.73,3.28,14.33,4,1.46.22,3,.44,4.44.64l3.49.51a44.44,44.44,0,0,0-10.07,27.87,35.38,35.38,0,0,0,3.08,14.68,5.51,5.51,0,0,1-1.56,1.38,26.61,26.61,0,0,1-2.51,1.25,29.42,29.42,0,0,0-5.35,2.95,12.76,12.76,0,0,0-5.43,11.5C143.07,251,146.79,257,156,257h69.51c9.23,0,13-6,13.36-11.58a12.8,12.8,0,0,0-5.43-11.5A29.17,29.17,0,0,0,228.1,231a26.31,26.31,0,0,1-2.5-1.25,5.51,5.51,0,0,1-1.56-1.38,35.38,35.38,0,0,0,3.08-14.68,44.49,44.49,0,0,0-10.07-27.87l3.49-.51c1.46-.2,3-.42,4.43-.64,4.61-.72,9.89-1.68,14.33-4a18.26,18.26,0,0,0,4.21-3,6.43,6.43,0,0,0,4.67,3.1A6.54,6.54,0,0,0,253,179.5a6.27,6.27,0,0,0,2.41-4.26,11,11,0,0,0-.57-4.37,11.52,11.52,0,0,1-.52-5.4c.65-3.6,2.52-6.05,4.7-8.89.85-1.11,1.73-2.26,2.58-3.54C263.8,149.72,264.42,146.18,263.3,143.34Zm-94.93-80c0-8.79,10-15.94,22.41-15.94s22.41,7.15,22.41,15.94A11.71,11.71,0,0,1,212,68.47c-2.8-.62-5.22-1-7.1-1.24a117.43,117.43,0,0,0-14.11-.88h0a117.34,117.34,0,0,0-14.08.88c-1.87.23-4.3.62-7.09,1.24A11.71,11.71,0,0,1,168.37,63.3ZM148.35,80a74.48,74.48,0,0,1,28.7-9.86,114.09,114.09,0,0,1,13.74-.85h0a113.89,113.89,0,0,1,13.71.85A74.37,74.37,0,0,1,233.2,80c13.94,8.49,21.18,19.66,21.56,33.26a23.79,23.79,0,0,0-2.73-4.58,28.16,28.16,0,0,0-25.28-10.89,79.72,79.72,0,0,0-13.5,3c-6.81,1.9-14.53,4.05-22.47,4.05s-15.66-2.15-22.47-4.05a79.81,79.81,0,0,0-13.51-3,28.14,28.14,0,0,0-25.27,10.89,23.79,23.79,0,0,0-2.73,4.58C127.18,99.7,134.41,88.53,148.35,80ZM133,177.8a3.54,3.54,0,0,1-2.59-.68,3.31,3.31,0,0,1-1.26-2.26,8.62,8.62,0,0,1,.49-3.2,14.36,14.36,0,0,0,.58-6.72c-.78-4.31-3-7.15-5.26-10.17-.83-1.07-1.68-2.18-2.47-3.38-1.64-2.46-2.17-5.06-1.42-7a3.88,3.88,0,0,1,2.86-2.38c3.82-.9,7,2.83,7.71,3.66.36,1,.69,2,1,3a22.6,22.6,0,0,1,.82,11.1c-.1.84-.19,1.71-.28,2.66-.38,4.39.18,8,1.71,10.94a15.82,15.82,0,0,0,1,1.68A3.35,3.35,0,0,1,133,177.8Zm35,8.54c1.53.27,3.06.57,4.58.92l2.94.71c4.85,1.18,9.86,2.41,15.31,2.41a52.13,52.13,0,0,0,11.63-1.53c-1.49,4.57-5.6,14.75-14.29,21.21a30.69,30.69,0,0,1-11.9,5.57,20.74,20.74,0,0,1-3.84.46,33.48,33.48,0,0,1,1.22-15.6,1.49,1.49,0,0,0-2.78-1.09,36.83,36.83,0,0,0-.53,21.33c2.25,8.49,7.76,15,16.38,19.24a45.1,45.1,0,0,1-11.95,1.71,31.4,31.4,0,0,1-7.58-5.07c-6.36-5.78-9.72-13.72-9.72-23A42.1,42.1,0,0,1,168,186.34Zm23.49,55.16a42.3,42.3,0,0,0,4.37-2,34.84,34.84,0,0,0,6.77-4.64,13.45,13.45,0,0,0,8.64,4.28,35.93,35.93,0,0,1-20.44,6,39.1,39.1,0,0,1-9.14-1.07,46.85,46.85,0,0,0,9.56-2.52Zm32.62-9.22a28.11,28.11,0,0,0,2.8,1.39,26.86,26.86,0,0,1,4.8,2.63,9.79,9.79,0,0,1,4.26,8.91c-.4,5.51-4.28,8.81-10.39,8.81H156c-6.1,0-10-3.3-10.38-8.81a9.79,9.79,0,0,1,4.26-8.91,26.86,26.86,0,0,1,4.8-2.63,28.11,28.11,0,0,0,2.8-1.39,9.11,9.11,0,0,0,1.47-1.12,31.68,31.68,0,0,0,6.16,7.65,34.43,34.43,0,0,0,8.62,5.7l.08,0a40.42,40.42,0,0,0,16.95,3.6c9.91,0,19-3.31,25.64-9.34a31.72,31.72,0,0,0,6.17-7.65A8.68,8.68,0,0,0,224.06,232.28Zm.08-18.62c0,8.83-3.07,16.46-8.9,22.17a10.18,10.18,0,0,1-2.8.39,10.41,10.41,0,0,1-7.72-3.44,26.47,26.47,0,0,0,5.32-8.34,37.23,37.23,0,0,0,.7-25,1.49,1.49,0,1,0-2.78,1.07,34.61,34.61,0,0,1-.7,22.87c-2.16,5.53-6.61,10.2-12.85,13.52a38.83,38.83,0,0,1-3.63,1.69c-9.43-3.86-15.36-10.11-17.61-18.6-.08-.3-.15-.6-.22-.9,3.18-.15,9.65-1.19,17-6.61,10.78-8,14.9-20.86,15.87-24.4l.31-.08,2.95-.71c1.52-.35,3.05-.65,4.57-.92A42.11,42.11,0,0,1,224.14,213.66ZM237.92,178c-4,2.11-9,3-13.4,3.69-1.44.23-2.88.43-4.4.64-2,.29-4.09.58-6.18.93h0c-1.84.31-3.69.66-5.55,1.09-1,.23-2,.48-3,.72-4.89,1.19-9.51,2.32-14.6,2.32s-9.71-1.13-14.6-2.32c-1-.24-2-.49-3-.72-1.85-.43-3.71-.78-5.55-1.09h0c-2.09-.35-4.16-.64-6.19-.93-1.52-.21-3-.41-4.39-.64-4.37-.68-9.37-1.58-13.41-3.69a14,14,0,0,1-6.13-5.95,16.91,16.91,0,0,1-1.39-9.32c.08-.92.18-1.76.27-2.58a25.57,25.57,0,0,0-.94-12.33c-.76-2.42-1.67-4.94-2.63-7.59a124.11,124.11,0,0,1-4.88-15.72,18.82,18.82,0,0,1,4-14,25.18,25.18,0,0,1,22.62-9.73,78.55,78.55,0,0,1,13,2.9c7,2,14.92,4.16,23.27,4.16s16.27-2.21,23.27-4.16a78.67,78.67,0,0,1,13-2.9,25.2,25.2,0,0,1,22.63,9.73,18.9,18.9,0,0,1,4,14,122.51,122.51,0,0,1-4.89,15.72c-1,2.66-1.87,5.17-2.62,7.59a25.57,25.57,0,0,0-.94,12.33c.09.82.19,1.66.27,2.58a16.91,16.91,0,0,1-1.39,9.32A14,14,0,0,1,237.92,178Zm21.19-26.61c-.8,1.2-1.65,2.31-2.47,3.38-2.31,3-4.49,5.86-5.26,10.17a14.23,14.23,0,0,0,.58,6.72,8.59,8.59,0,0,1,.48,3.2,3.27,3.27,0,0,1-1.26,2.26,3.53,3.53,0,0,1-2.59.68,3.35,3.35,0,0,1-2.89-2.71,14.3,14.3,0,0,0,1-1.68c1.53-3,2.09-6.55,1.71-10.94-.08-.95-.18-1.82-.27-2.66a22.48,22.48,0,0,1,.82-11.1c.3-1,.64-2,1-3,.65-.83,3.86-4.56,7.71-3.65a3.86,3.86,0,0,1,2.85,2.38C261.27,146.33,260.74,148.93,259.11,151.39Z" transform="translate(-88.66 -28.32)"/><path class="cls-5" d="M202.66,171.91a1.51,1.51,0,0,0-2,.59c-1.6,2.91-5.37,4.72-9.85,4.72s-8.26-1.81-9.86-4.72a1.49,1.49,0,1,0-2.61,1.44c2.13,3.86,6.9,6.26,12.47,6.26s10.34-2.4,12.46-6.26A1.49,1.49,0,0,0,202.66,171.91Z" transform="translate(-88.66 -28.32)"/><path class="cls-5" d="M173.24,147.78c-2.72,3.29-8.4,5.42-14.47,5.42s-11.75-2.13-14.47-5.42a1.48,1.48,0,0,0-2.29,1.89c3.31,4,9.73,6.51,16.76,6.51s13.46-2.49,16.77-6.51a1.49,1.49,0,0,0-2.3-1.89Z" transform="translate(-88.66 -28.32)"/><path class="cls-5" d="M237.25,147.78c-2.72,3.29-8.39,5.42-14.47,5.42s-11.75-2.13-14.46-5.42a1.49,1.49,0,0,0-2.3,1.89c3.31,4,9.73,6.51,16.76,6.51s13.46-2.49,16.77-6.51a1.49,1.49,0,0,0-2.3-1.89Z" transform="translate(-88.66 -28.32)"/></svg>