<svg width="50" height="50" viewBox="0 0 50 50" fill="none" xmlns="http://www.w3.org/2000/svg">
<path d="M45.5078 0H4.49219C2.06904 0 0.0976562 1.97139 0.0976562 4.39453V45.6055C0.0976562 48.0286 2.06904 50 4.49219 50H45.5078C47.931 50 49.9023 48.0286 49.9023 45.6055V4.39453C49.9023 1.97139 47.931 0 45.5078 0ZM3.02734 4.39453C3.02734 3.58682 3.68447 2.92969 4.49219 2.92969H45.5078C46.3155 2.92969 46.9727 3.58682 46.9727 4.39453V41.0156H3.02734V4.39453ZM46.9727 45.6055C46.9727 46.4132 46.3155 47.0703 45.5078 47.0703H4.49219C3.68447 47.0703 3.02734 46.4132 3.02734 45.6055V43.9453H46.9727V45.6055Z" fill="black"/>
<path d="M31.3477 23.6895V7.32422C31.3477 6.51523 30.6918 5.85938 29.8828 5.85938C29.0738 5.85938 28.418 6.51523 28.418 7.32422V23.6895C26.713 24.2941 25.4883 25.9224 25.4883 27.832C25.4883 29.7417 26.713 31.3699 28.418 31.9746V36.6211C28.418 37.4301 29.0738 38.0859 29.8828 38.0859C30.6918 38.0859 31.3477 37.4301 31.3477 36.6211V31.9746C33.0526 31.3699 34.2773 29.7417 34.2773 27.832C34.2773 25.9224 33.0526 24.2941 31.3477 23.6895ZM29.8828 29.2969C29.0751 29.2969 28.418 28.6397 28.418 27.832C28.418 27.0243 29.0751 26.3672 29.8828 26.3672C30.6905 26.3672 31.3477 27.0243 31.3477 27.832C31.3477 28.6397 30.6905 29.2969 29.8828 29.2969Z" fill="black"/>
<path d="M41.1133 10.0176V7.32422C41.1133 6.51523 40.4574 5.85938 39.6484 5.85938C38.8395 5.85938 38.1836 6.51523 38.1836 7.32422V10.0176C36.4786 10.6223 35.2539 12.2505 35.2539 14.1602C35.2539 16.0698 36.4786 17.698 38.1836 18.3027V36.6211C38.1836 37.4301 38.8395 38.0859 39.6484 38.0859C40.4574 38.0859 41.1133 37.4301 41.1133 36.6211V18.3027C42.8183 17.698 44.043 16.0698 44.043 14.1602C44.043 12.2505 42.8183 10.6223 41.1133 10.0176ZM39.6484 15.625C38.8407 15.625 38.1836 14.9679 38.1836 14.1602C38.1836 13.3524 38.8407 12.6953 39.6484 12.6953C40.4562 12.6953 41.1133 13.3524 41.1133 14.1602C41.1133 14.9679 40.4562 15.625 39.6484 15.625Z" fill="black"/>
<path d="M21.582 10.0176V7.32422C21.582 6.51523 20.9262 5.85938 20.1172 5.85938C19.3082 5.85938 18.6523 6.51523 18.6523 7.32422V10.0176C16.9474 10.6223 15.7227 12.2505 15.7227 14.1602C15.7227 16.0698 16.9474 17.698 18.6523 18.3027V36.6211C18.6523 37.4301 19.3082 38.0859 20.1172 38.0859C20.9262 38.0859 21.582 37.4301 21.582 36.6211V18.3027C23.287 17.698 24.5117 16.0698 24.5117 14.1602C24.5117 12.2505 23.287 10.6223 21.582 10.0176ZM20.1172 15.625C19.3095 15.625 18.6523 14.9679 18.6523 14.1602C18.6523 13.3524 19.3095 12.6953 20.1172 12.6953C20.9249 12.6953 21.582 13.3524 21.582 14.1602C21.582 14.9679 20.9249 15.625 20.1172 15.625Z" fill="black"/>
<path d="M11.8164 23.6895V7.32422C11.8164 6.51523 11.1605 5.85938 10.3516 5.85938C9.54258 5.85938 8.88672 6.51523 8.88672 7.32422V23.6895C7.18174 24.2941 5.95703 25.9224 5.95703 27.832C5.95703 29.7417 7.18174 31.3699 8.88672 31.9746V36.6211C8.88672 37.4301 9.54258 38.0859 10.3516 38.0859C11.1605 38.0859 11.8164 37.4301 11.8164 36.6211V31.9746C13.5214 31.3699 14.7461 29.7417 14.7461 27.832C14.7461 25.9224 13.5214 24.2941 11.8164 23.6895ZM10.3516 29.2969C9.54385 29.2969 8.88672 28.6397 8.88672 27.832C8.88672 27.0243 9.54385 26.3672 10.3516 26.3672C11.1593 26.3672 11.8164 27.0243 11.8164 27.832C11.8164 28.6397 11.1593 29.2969 10.3516 29.2969Z" fill="black"/>
</svg>
