<svg width="60" height="60" viewBox="0 0 60 60" fill="none" xmlns="http://www.w3.org/2000/svg">
<path d="M14 39.5C10.691 39.5 8 42.191 8 45.5C8 48.8091 10.691 51.5 14 51.5C17.309 51.5 20 48.8091 20 45.5C20 42.191 17.3089 39.5 14 39.5ZM14 49.5C11.7939 49.5 10 47.706 10 45.5C10 43.294 11.7941 41.5001 14 41.5001C16.2059 41.5001 18 43.2941 18 45.5C18 47.706 16.2059 49.5 14 49.5Z" fill="black"/>
<path d="M48 39.5C44.691 39.5 42 42.191 42 45.5C42 48.8091 44.691 51.5 48 51.5C51.309 51.5 54 48.8091 54 45.5C54 42.191 51.309 39.5 48 39.5ZM48 49.5C45.7939 49.5 44 47.706 44 45.5C44 43.294 45.7941 41.5001 48 41.5001C50.2061 41.5001 52 43.2941 52 45.5C52 47.706 50.2061 49.5 48 49.5Z" fill="black"/>
<path d="M59.8409 33.9591L50.8409 19.959C50.657 19.673 50.34 19.5 49.9999 19.5H39C38.447 19.5 38 19.948 38 20.5V45.4999C38 46.0529 38.447 46.4999 39 46.4999H42.9999V44.4998H39.9999V21.5H49.4539L57.9999 34.794V44.5001H52.9999V46.5H58.9999C59.5529 46.5 59.9998 46.053 59.9998 45.5V34.5C60 34.309 59.945 34.12 59.8409 33.9591Z" fill="black"/>
<path d="M43.9999 32.5V25.5H52V23.5H43C42.447 23.5 42 23.948 42 24.4999V33.4999C42 34.0529 42.447 34.4999 43 34.4999H58V32.4998H43.9999V32.5Z" fill="black"/>
<path d="M39 12.5H0.999961C0.448008 12.5 0 12.948 0 13.5V45.5C0 46.0531 0.448008 46.5 0.999961 46.5H9V44.5H2.00004V14.5H38V44.5H19V46.5H39C39.553 46.5 40 46.0531 40 45.5V13.5C40 12.948 39.553 12.5 39 12.5Z" fill="black"/>
<path d="M7 40.5H1V42.5H7V40.5Z" fill="black"/>
<path d="M38 40.5H21V42.5H38V40.5Z" fill="black"/>
<path d="M59 40.5H55V42.5H59V40.5Z" fill="black"/>
<path d="M39 16.5H4V18.5H39V16.5Z" fill="black"/>
<path d="M15 44.5H13V46.5H15V44.5Z" fill="black"/>
<path d="M49 44.5H47V46.5H49V44.5Z" fill="black"/>
<path d="M18 8.49996H4V10.5H18V8.49996Z" fill="black"/>
<path d="M2.00004 8.49996H0V10.5H2.00004V8.49996Z" fill="black"/>
</svg>
