<svg width="50" height="50" viewBox="0 0 50 50" fill="none" xmlns="http://www.w3.org/2000/svg">
<path d="M34.6016 14.8944C33.7921 14.3548 26.6226 9.5751 25.8125 9.03507C25.3204 8.70714 24.6795 8.70714 24.1874 9.03507C23.3777 9.57491 16.2076 14.355 15.3983 14.8944C14.7251 15.3433 14.5433 16.2527 14.9921 16.9258C15.4409 17.599 16.3506 17.7809 17.0234 17.3321L17.6758 16.8973V25C17.6758 25.809 18.3316 26.4648 19.1406 26.4648H30.8594C31.6684 26.4648 32.3242 25.809 32.3242 25V16.8973L32.9766 17.3321C33.6486 17.78 34.5584 17.6001 35.0079 16.9258C35.4566 16.2527 35.2748 15.3433 34.6016 14.8944ZM29.3945 23.5352H20.6055V14.9441L25 12.0145L29.3945 14.9441V23.5352Z" fill="black"/>
<path d="M25 0C16.1151 0 8.88672 7.22842 8.88672 16.1133C8.88672 25.4221 17.7984 37.4632 23.9573 43.7047C24.2326 43.9836 24.6081 44.1406 25 44.1406C25.3919 44.1406 25.7674 43.9836 26.0427 43.7047C32.291 37.3726 41.1133 25.375 41.1133 16.1133C41.1133 7.22842 33.8849 0 25 0ZM24.9996 40.5347C21.7158 36.9376 11.8164 25.3275 11.8164 16.1133C11.8164 8.84385 17.7306 2.92969 25 2.92969C32.2694 2.92969 38.1836 8.84385 38.1836 16.1133C38.1836 25.3172 28.2824 36.9358 24.9996 40.5347Z" fill="black"/>
<path d="M16.2109 47.0703C15.402 47.0703 14.7461 47.7262 14.7461 48.5352C14.7461 49.3441 15.402 50 16.2109 50H33.7891C34.598 50 35.2539 49.3441 35.2539 48.5352C35.2539 47.7262 34.598 47.0703 33.7891 47.0703H16.2109Z" fill="black"/>
</svg>
